<mxfile host="app.diagrams.net" modified="2023-12-10T03:38:47.674Z" agent="Mozilla/5.0 (Windows NT 10.0; Win64; x64) AppleWebKit/537.36 (KHTML, like Gecko) Chrome/120.0.0.0 Safari/537.36" version="22.1.7" etag="b9J85AM1OeMxLcvFfleq" type="github">
  <diagram name="Page-1" id="G6Y3oZ-ep52y4k9lFuap">
    <mxGraphModel>
      <root>
        <mxCell id="0" />
        <mxCell id="1" parent="0" />
      </root>
    </mxGraphModel>
  </diagram>
</mxfile>
